<?xml version="1.0" encoding="UTF-8" standalone="no"?>
<svg
   xmlns:dc="http://purl.org/dc/elements/1.1/"
   xmlns:cc="http://creativecommons.org/ns#"
   xmlns:rdf="http://www.w3.org/1999/02/22-rdf-syntax-ns#"
   xmlns:svg="http://www.w3.org/2000/svg"
   xmlns="http://www.w3.org/2000/svg"
   xmlns:sodipodi="http://sodipodi.sourceforge.net/DTD/sodipodi-0.dtd"
   xmlns:inkscape="http://www.inkscape.org/namespaces/inkscape"
   width="6.6375403in"
   height="4.0757465in"
   viewBox="0 0 191.16117 117.3815"
   version="1.1"
   id="svg30"
   sodipodi:docname="tskit_logo.svg"
   inkscape:version="0.92.4 (5da689c313, 2019-01-14)">
  <metadata
     id="metadata34">
    <rdf:RDF>
      <cc:Work
         rdf:about="">
        <dc:format>image/svg+xml</dc:format>
        <dc:type
           rdf:resource="http://purl.org/dc/dcmitype/StillImage" />
        <dc:title>influencersAsset 2</dc:title>
      </cc:Work>
    </rdf:RDF>
  </metadata>
  <sodipodi:namedview
     pagecolor="#ffffff"
     bordercolor="#666666"
     borderopacity="1"
     objecttolerance="10"
     gridtolerance="10"
     guidetolerance="10"
     inkscape:pageopacity="0"
     inkscape:pageshadow="2"
     inkscape:window-width="1920"
     inkscape:window-height="1016"
     id="namedview32"
     showgrid="false"
     units="in"
     fit-margin-top="0"
     fit-margin-left="0"
     fit-margin-right="0"
     fit-margin-bottom="0"
     inkscape:zoom="1.8413932"
     inkscape:cx="200.93637"
     inkscape:cy="93.631408"
     inkscape:window-x="0"
     inkscape:window-y="27"
     inkscape:window-maximized="1"
     inkscape:current-layer="svg30" />
  <defs
     id="defs4">
    <style
       id="style2">
      .cls-1 {
        fill: #12e3a8;
      }

      .cls-2 {
        fill: #045167;
      }
    </style>
  </defs>
  <title
     id="title6">influencersAsset 2</title>
  <g
     id="Layer_2"
     data-name="Layer 2"
     transform="translate(0.00155549)">
    <g
       id="Layer_1-2"
       data-name="Layer 1">
      <g
         id="g26">
        <g
           id="g12">
          <path
             class="cls-1"
             d="M 73.625,38.3661 H 57.3906 V 19.86 A 2.9343,2.9343 0 0 0 54.4563,16.9257 H 32.3485 V 2.9343 a 2.9344,2.9344 0 0 0 -5.8687,0 V 16.9256 H 5.3162 A 2.9343,2.9343 0 0 0 2.3819,19.86 v 33.8487 a 2.9344,2.9344 0 0 0 5.8687,0 V 22.7942 h 21.1635 0.0012 0.0012 22.1054 V 38.3661 H 35.2864 A 2.9343,2.9343 0 0 0 32.352,41.3 v 19.994 a 6.1089,6.1089 0 1 0 5.8687,0.3347 v -17.394 h 32.47 v 54.6422 a 2.9344,2.9344 0 1 0 5.8687,0 V 41.3 A 2.9343,2.9343 0 0 0 73.625,38.3661 Z"
             id="path8"
             inkscape:connector-curvature="0"
             style="fill:#12e3a8" />
          <path
             class="cls-1"
             d="M 188.2253,16.9256 H 156.5922 V 2.9343 a 2.9343,2.9343 0 1 0 -5.8686,0 V 16.9256 H 118.0793 A 2.9343,2.9343 0 0 0 115.145,19.86 V 38.3661 H 95.2159 A 2.9343,2.9343 0 0 0 92.2815,41.3 v 12.4087 a 2.9344,2.9344 0 0 0 5.8687,0 v -9.474 h 39.265 v 17.3231 a 6.1138,6.1138 0 1 0 5.8687,-0.1931 V 41.3 a 2.9343,2.9343 0 0 0 -2.9344,-2.9343 H 121.0137 V 22.7942 h 64.2773 v 76.0827 a 2.9343,2.9343 0 1 0 5.8686,0 V 19.86 a 2.9343,2.9343 0 0 0 -2.9343,-2.9344 z"
             id="path10"
             inkscape:connector-curvature="0"
             style="fill:#12e3a8" />
        </g>
        <path
           class="cls-2"
           d="m 17.6849,116.5672 c -7.6954,0 -10.5823,-2.812 -10.5823,-10.2121 V 84.3784 H 1.5536 A 1.4036,1.4036 0 0 1 0,82.9724 V 81.27 a 1.42,1.42 0 0 1 1.5536,-1.48 h 5.549 v -8.5833 a 2.2146,2.2146 0 0 1 2.369,-2.3679 h 1.4809 a 2.1935,2.1935 0 0 1 2.2919,2.3679 V 79.79 h 8.9538 a 1.3993,1.3993 0 0 1 1.4809,1.48 v 1.7024 a 1.381,1.381 0 0 1 -1.4809,1.406 h -8.9538 v 21.9029 c 0,3.9226 1.2583,5.55 4.8108,5.55 h 4.143 a 1.3618,1.3618 0 0 1 1.4809,1.48 v 1.6287 a 1.46,1.46 0 0 1 -1.5537,1.6275 z"
           id="path14"
           inkscape:connector-curvature="0"
           style="fill:#045167" />
        <path
           class="cls-2"
           d="m 59.9719,106.2074 c 0,6.7335 -4.5132,11.1741 -14.505,11.1741 -9.84,0 -14.355,-3.8478 -14.355,-9.99 v -1.1107 a 1.0712,1.0712 0 0 1 1.1856,-1.11 h 3.4774 a 0.9363,0.9363 0 0 1 1.0358,1.0357 v 1.11 c 0,3.6263 2.6643,5.4025 8.6562,5.4025 5.9942,0 8.7334,-2.22 8.7334,-5.8454 v -0.8881 c 0,-3.33 -1.9988,-4.218 -5.106,-4.662 l -8.1406,-1.0358 c -6.8073,-0.9619 -9.7669,-3.7 -9.7669,-9.5465 v -0.6656 c 0,-6.66 4.3656,-11.099 14.2074,-11.099 9.4716,0 13.8372,3.8477 13.8372,9.9156 v 0.7394 a 1.0888,1.0888 0 0 1 -1.1834,1.1845 h -3.4047 a 1.0112,1.0112 0 0 1 -1.1085,-1.1107 v -0.7393 c 0,-3.5524 -2.5167,-5.3286 -8.1406,-5.3286 -6.069,0 -8.4359,2.22 -8.4359,5.7726 V 90.15 c 0,3.4036 1.9988,4.2179 5.1788,4.662 l 8.1406,1.1095 c 6.8073,0.8881 9.6942,3.7 9.6942,9.4717 z"
           id="path16"
           inkscape:connector-curvature="0"
           style="fill:#045167" />
        <path
           class="cls-2"
           d="m 88.4457,116.5672 a 1.3792,1.3792 0 0 1 -1.4787,-1.406 v -1.7762 a 1.3406,1.3406 0 0 1 1.4787,-1.406 h 4.7358 V 69.3567 h -4.7358 a 1.3406,1.3406 0 0 1 -1.4787,-1.406 v -1.7751 a 1.3792,1.3792 0 0 1 1.4787,-1.406 h 8.5835 c 1.5536,0 2.2941,0.6655 2.2941,2.293 v 44.9164 h 4.8107 a 1.3784,1.3784 0 0 1 1.4787,1.406 v 1.7762 a 1.4219,1.4219 0 0 1 -1.4787,1.406 z m 30.3387,-0.5917 -15.0206,-15.4655 a 3.4731,3.4731 0 0 1 -1.1107,-2.5894 3.73,3.73 0 0 1 1.1834,-2.6643 l 9.9168,-10.9514 H 109.24 a 1.4454,1.4454 0 0 1 -1.5558,-1.406 V 81.1962 A 1.4461,1.4461 0 0 1 109.24,79.79 h 13.69 a 1.38,1.38 0 0 1 1.4787,1.406 v 1.7762 a 1.3792,1.3792 0 0 1 -1.4787,1.406 h -3.0345 l -11.5436,12.5053 14.9457,15.0955 a 2.882,2.882 0 0 1 -0.22,4.3667 3.0548,3.0548 0 0 1 -4.2932,-0.3702 z"
           id="path18"
           inkscape:connector-curvature="0"
           style="fill:#045167" />
        <path
           class="cls-2"
           d="m 132.9866,116.5672 a 1.4575,1.4575 0 0 1 -1.5536,-1.48 v -1.7762 a 1.4435,1.4435 0 0 1 1.5536,-1.406 h 4.8108 V 84.3784 h -4.8108 a 1.4435,1.4435 0 0 1 -1.5536,-1.406 v -1.7762 a 1.4442,1.4442 0 0 1 1.5536,-1.406 h 8.6585 c 1.5536,0 2.3668,0.6667 2.3668,2.2941 v 29.8209 h 4.8857 a 1.4448,1.4448 0 0 1 1.5536,1.406 v 1.7762 a 1.4587,1.4587 0 0 1 -1.5536,1.48 z"
           id="path20"
           inkscape:connector-curvature="0"
           style="fill:#045167" />
        <path
           class="cls-2"
           d="m 168.68,116.5672 c -7.6954,0 -10.5823,-2.812 -10.5823,-10.2121 V 84.3784 h -5.549 a 1.4036,1.4036 0 0 1 -1.5536,-1.406 V 81.27 a 1.42,1.42 0 0 1 1.5536,-1.48 h 5.549 v -8.5833 a 2.2146,2.2146 0 0 1 2.369,-2.3679 h 1.4809 a 2.1935,2.1935 0 0 1 2.2919,2.3679 V 79.79 h 8.9538 a 1.3993,1.3993 0 0 1 1.4809,1.48 v 1.7024 a 1.381,1.381 0 0 1 -1.4809,1.406 H 164.24 v 21.9029 c 0,3.9226 1.2583,5.55 4.8107,5.55 h 4.1431 a 1.3618,1.3618 0 0 1 1.4809,1.48 v 1.6287 a 1.46,1.46 0 0 1 -1.5537,1.6275 z"
           id="path22"
           inkscape:connector-curvature="0"
           style="fill:#045167" />
        <circle
           class="cls-2"
           cx="140.5274"
           cy="66.791901"
           r="3.0560999"
           id="circle24"
           style="fill:#045167" />
      </g>
    </g>
  </g>
</svg>
